<svg width="120" height="24" viewBox="0 0 120 24" fill="none" xmlns="http://www.w3.org/2000/svg">
<path d="M21.345 0C23.5708 0 24.9191 2.59866 23.8366 4.56196C22.6061 6.79366 21.4173 9.42869 21.291 11.4558C21.1671 13.4441 22.3721 16.0057 23.7135 18.1969C24.89 20.1188 23.5961 22.8571 21.3581 22.8571C21.3494 22.8571 21.3427 22.8572 21.334 22.857C21.0641 22.852 15.9413 22.61 15.9413 11.4558C15.9413 0 21.345 0 21.345 0Z" fill="url(#paint0_linear_286_6425)"/>
<path d="M5.40371 0C3.17821 0 1.84274 2.61811 2.94991 4.56705C4.21711 6.79766 5.43963 9.43023 5.56582 11.4558C5.69446 13.5206 4.45129 16.2035 3.11338 18.4481C2.01719 20.2871 3.2651 22.8571 5.39114 22.8571C5.39952 22.8571 5.40556 22.8572 5.41394 22.857C5.67402 22.8525 10.8074 22.6215 10.8074 11.4558C10.8074 0 5.40371 0 5.40371 0Z" fill="url(#paint1_linear_286_6425)"/>
<path d="M3.10733 4.85449C3.10733 4.85449 9.08639 8.83678 13.4014 8.83678C17.7164 8.83678 23.7224 4.85449 23.7224 4.85449C23.7224 4.85449 21.3519 8.7469 21.3448 11.5098C21.3377 14.2928 23.7224 18.2196 23.7224 18.2196C23.7224 18.2196 17.7316 14.1283 13.4014 14.1283C9.07117 14.1283 3.16137 18.3287 3.16137 18.3287C3.16137 18.3287 5.51198 14.3173 5.51198 11.5371C5.51198 8.75684 3.10733 4.85449 3.10733 4.85449Z" fill="url(#paint2_linear_286_6425)"/>
<path d="M39.1635 10.9604C39.0578 11.0899 38.956 11.1928 38.8579 11.269C38.7597 11.3451 38.6201 11.3832 38.439 11.3832C38.2654 11.3832 38.1069 11.3414 37.9635 11.2575C37.8277 11.1737 37.6729 11.0823 37.4994 10.9832C37.3258 10.8766 37.122 10.7814 36.888 10.6975C36.654 10.6137 36.3635 10.5718 36.0163 10.5718C35.5862 10.5718 35.2126 10.6518 34.8956 10.8118C34.5861 10.9718 34.3296 11.2004 34.1258 11.4975C33.922 11.7947 33.771 12.1604 33.673 12.5947C33.5748 13.0214 33.5258 13.5051 33.5258 14.0461C33.5258 15.1814 33.7409 16.0537 34.1711 16.6632C34.6088 17.2728 35.2088 17.5775 35.9711 17.5775C36.3786 17.5775 36.6993 17.528 36.9333 17.429C37.1748 17.3223 37.3786 17.208 37.5447 17.0861C37.7107 16.9566 37.8616 16.8385 37.9975 16.7318C38.1409 16.6251 38.3182 16.5718 38.5296 16.5718C38.8088 16.5718 39.0201 16.6747 39.1635 16.8804L40.1824 18.149C39.8201 18.568 39.439 18.9108 39.039 19.1775C38.639 19.4366 38.2276 19.6423 37.805 19.7947C37.3899 19.9394 36.971 20.0385 36.5484 20.0918C36.1258 20.1528 35.7144 20.1832 35.3145 20.1832C34.5975 20.1832 33.9107 20.0461 33.2541 19.7718C32.605 19.4975 32.0314 19.1014 31.5333 18.5832C31.0427 18.0575 30.6503 17.4137 30.356 16.6518C30.0692 15.8899 29.9258 15.0214 29.9258 14.0461C29.9258 13.1928 30.0503 12.3966 30.2994 11.6575C30.556 10.9108 30.9295 10.2671 31.4201 9.7261C31.9182 9.17753 32.5296 8.74707 33.2541 8.43467C33.9861 8.12227 34.8314 7.9661 35.7899 7.9661C36.7106 7.9661 37.5182 8.11467 38.2126 8.41181C38.9069 8.70896 39.5333 9.14324 40.0918 9.71467L39.1635 10.9604ZM45.3294 8.14896V20.0004H41.82V8.14896H45.3294ZM45.737 4.90324C45.737 5.18515 45.6804 5.45181 45.5672 5.70324C45.454 5.94707 45.2992 6.16421 45.103 6.35467C44.9068 6.53753 44.6766 6.6861 44.4124 6.80038C44.1558 6.90707 43.8804 6.96039 43.586 6.96039C43.2992 6.96039 43.0313 6.90707 42.7823 6.80038C42.5332 6.6861 42.3105 6.53753 42.1143 6.35467C41.9256 6.16421 41.7747 5.94707 41.6615 5.70324C41.5558 5.45181 41.503 5.18515 41.503 4.90324C41.503 4.61372 41.5558 4.34324 41.6615 4.09181C41.7747 3.84038 41.9256 3.61943 42.1143 3.42896C42.3105 3.23848 42.5332 3.08991 42.7823 2.98324C43.0313 2.87657 43.2992 2.82324 43.586 2.82324C43.8804 2.82324 44.1558 2.87657 44.4124 2.98324C44.6766 3.08991 44.9068 3.23848 45.103 3.42896C45.2992 3.61943 45.454 3.84038 45.5672 4.09181C45.6804 4.34324 45.737 4.61372 45.737 4.90324ZM54.6612 20.0004H51.4688L46.9178 8.14896H49.8386C50.0877 8.14896 50.2952 8.20993 50.4612 8.33181C50.6348 8.4461 50.7518 8.59084 50.8122 8.7661L52.4424 14.0804C52.5707 14.5147 52.6914 14.9375 52.8046 15.349C52.9254 15.7604 53.0273 16.1718 53.1103 16.5832C53.1933 16.1718 53.2952 15.7604 53.416 15.349C53.5367 14.9375 53.665 14.5147 53.8009 14.0804L55.499 8.7661C55.5594 8.59084 55.6726 8.4461 55.8386 8.33181C56.0047 8.20993 56.2009 8.14896 56.4273 8.14896H59.2121L54.6612 20.0004ZM64.3007 8.14896V20.0004H60.7913V8.14896H64.3007ZM64.7083 4.90324C64.7083 5.18515 64.6517 5.45181 64.5385 5.70324C64.4253 5.94707 64.2702 6.16421 64.0743 6.35467C63.8779 6.53753 63.6475 6.6861 63.3838 6.80038C63.1268 6.90707 62.8517 6.96039 62.5573 6.96039C62.2704 6.96039 62.0026 6.90707 61.7536 6.80038C61.5045 6.6861 61.2815 6.53753 61.0857 6.35467C60.8966 6.16421 60.746 5.94707 60.6328 5.70324C60.527 5.45181 60.4743 5.18515 60.4743 4.90324C60.4743 4.61372 60.527 4.34324 60.6328 4.09181C60.746 3.84038 60.8966 3.61943 61.0857 3.42896C61.2815 3.23848 61.5045 3.08991 61.7536 2.98324C62.0026 2.87657 62.2704 2.82324 62.5573 2.82324C62.8517 2.82324 63.1268 2.87657 63.3838 2.98324C63.6475 3.08991 63.8779 3.23848 64.0743 3.42896C64.2702 3.61943 64.4253 3.84038 64.5385 4.09181C64.6517 4.34324 64.7083 4.61372 64.7083 4.90324ZM75.6023 10.9604C75.4964 11.0899 75.3945 11.1928 75.2966 11.269C75.1987 11.3451 75.0589 11.3832 74.8777 11.3832C74.704 11.3832 74.5455 11.3414 74.4023 11.2575C74.2664 11.1737 74.1119 11.0823 73.9381 10.9832C73.7643 10.8766 73.5606 10.7814 73.3268 10.6975C73.093 10.6137 72.8021 10.5718 72.4551 10.5718C72.0249 10.5718 71.6513 10.6518 71.3343 10.8118C71.0247 10.9718 70.7683 11.2004 70.5645 11.4975C70.3607 11.7947 70.2096 12.1604 70.1117 12.5947C70.0138 13.0214 69.9645 13.5051 69.9645 14.0461C69.9645 15.1814 70.1796 16.0537 70.6098 16.6632C71.0474 17.2728 71.6474 17.5775 72.4098 17.5775C72.8173 17.5775 73.1383 17.528 73.3721 17.429C73.6138 17.3223 73.8175 17.208 73.9834 17.0861C74.1492 16.9566 74.3004 16.8385 74.4362 16.7318C74.5794 16.6251 74.7572 16.5718 74.9683 16.5718C75.2474 16.5718 75.459 16.6747 75.6023 16.8804L76.6211 18.149C76.2589 18.568 75.8779 18.9108 75.4777 19.1775C75.0775 19.4366 74.6666 19.6423 74.2438 19.7947C73.8289 19.9394 73.41 20.0385 72.9872 20.0918C72.5643 20.1528 72.1534 20.1832 71.7532 20.1832C71.036 20.1832 70.3494 20.0461 69.6928 19.7718C69.0436 19.4975 68.4702 19.1014 67.9721 18.5832C67.4813 18.0575 67.0891 17.4137 66.7947 16.6518C66.5077 15.8899 66.3645 15.0214 66.3645 14.0461C66.3645 13.1928 66.489 12.3966 66.7381 11.6575C66.9945 10.9108 67.3681 10.2671 67.8589 9.7261C68.357 9.17753 68.9683 8.74707 69.6928 8.43467C70.4247 8.12227 71.2704 7.9661 72.2287 7.9661C73.1496 7.9661 73.9568 8.11467 74.6513 8.41181C75.3458 8.70896 75.9719 9.14324 76.5306 9.71467L75.6023 10.9604ZM85.3228 10.7432C85.2323 10.888 85.1343 10.9908 85.0285 11.0518C84.9306 11.1128 84.8021 11.1432 84.6436 11.1432C84.4777 11.1432 84.3113 11.109 84.1455 11.0404C83.9796 10.9642 83.7985 10.8842 83.6021 10.8004C83.4136 10.7166 83.1985 10.6404 82.9568 10.5718C82.7151 10.4956 82.44 10.4575 82.1304 10.4575C81.6849 10.4575 81.3419 10.5451 81.1002 10.7204C80.8664 10.888 80.7492 11.1242 80.7492 11.429C80.7492 11.6499 80.8245 11.8328 80.9757 11.9775C81.1341 12.1223 81.3419 12.2518 81.5983 12.3661C81.8547 12.4728 82.1457 12.5756 82.47 12.6747C82.7943 12.7737 83.1266 12.8842 83.4662 13.0061C83.8058 13.128 84.1381 13.2728 84.4624 13.4404C84.7868 13.6004 85.0777 13.8023 85.3341 14.0461C85.5906 14.2823 85.7943 14.5718 85.9455 14.9147C86.104 15.2575 86.1832 15.669 86.1832 16.149C86.1832 16.7356 86.0774 17.2766 85.8662 17.7718C85.6551 18.2671 85.3381 18.6937 84.9153 19.0518C84.5004 19.4099 83.983 19.688 83.3643 19.8861C82.753 20.0842 82.0472 20.1832 81.2474 20.1832C80.8472 20.1832 80.4475 20.1451 80.0474 20.069C79.6472 19.9928 79.2589 19.8899 78.8813 19.7604C78.5117 19.6308 78.1681 19.4785 77.8511 19.3032C77.5341 19.1204 77.2624 18.9261 77.036 18.7204L77.8511 17.4175C77.9491 17.2651 78.0662 17.1471 78.2021 17.0632C78.3379 16.9718 78.5151 16.9261 78.7341 16.9261C78.9379 16.9261 79.1191 16.9718 79.2775 17.0632C79.4434 17.1547 79.6211 17.2537 79.8096 17.3604C79.9981 17.4671 80.2172 17.5661 80.4662 17.6575C80.7226 17.749 81.0436 17.7947 81.4285 17.7947C81.7002 17.7947 81.9306 17.768 82.119 17.7147C82.3075 17.6537 82.4587 17.5737 82.5719 17.4747C82.6851 17.3756 82.7683 17.2651 82.8209 17.1432C82.8736 17.0214 82.9002 16.8956 82.9002 16.7661C82.9002 16.5299 82.8209 16.3356 82.6624 16.1832C82.504 16.0308 82.2962 15.9014 82.0398 15.7947C81.7834 15.6804 81.4891 15.5775 81.1568 15.4861C80.8324 15.3871 80.5002 15.2766 80.1606 15.1547C79.8209 15.0328 79.4853 14.888 79.153 14.7204C78.8287 14.5451 78.5377 14.328 78.2813 14.069C78.0249 13.8023 77.8172 13.4785 77.6587 13.0975C77.5002 12.7166 77.4209 12.2556 77.4209 11.7147C77.4209 11.2118 77.5155 10.7356 77.704 10.2861C77.9004 9.82896 78.1908 9.42896 78.5757 9.0861C78.9606 8.74324 79.4434 8.47278 80.0247 8.27467C80.606 8.06896 81.2853 7.9661 82.0625 7.9661C82.4853 7.9661 82.8928 8.00421 83.2851 8.08039C83.6853 8.15656 84.0589 8.26324 84.4058 8.40039C84.7528 8.53753 85.0698 8.70136 85.3568 8.89181C85.6438 9.07467 85.8962 9.27656 86.1153 9.49753L85.3228 10.7432ZM88.1174 20.0004V2.89181H91.6268V9.18896C92.0496 8.82324 92.5064 8.52993 92.9966 8.30896C93.4947 8.08039 94.0874 7.9661 94.774 7.9661C95.4158 7.9661 95.9819 8.08039 96.4721 8.30896C96.9702 8.52993 97.3891 8.84227 97.7287 9.2461C98.0683 9.64227 98.3253 10.1185 98.4985 10.6747C98.6723 11.2232 98.7589 11.8214 98.7589 12.469V20.0004H95.2494V12.469C95.2494 11.8899 95.1175 11.4404 94.8532 11.1204C94.5894 10.7928 94.2006 10.629 93.6872 10.629C93.3023 10.629 92.94 10.7128 92.6004 10.8804C92.2607 11.048 91.9364 11.2728 91.6268 11.5547V20.0004H88.1174ZM104.874 8.14896V20.0004H101.364V8.14896H104.874ZM105.281 4.90324C105.281 5.18515 105.225 5.45181 105.112 5.70324C104.998 5.94707 104.844 6.16421 104.647 6.35467C104.452 6.53753 104.221 6.6861 103.957 6.80038C103.7 6.90707 103.425 6.96039 103.13 6.96039C102.844 6.96039 102.576 6.90707 102.327 6.80038C102.078 6.6861 101.855 6.53753 101.659 6.35467C101.47 6.16421 101.319 5.94707 101.206 5.70324C101.101 5.45181 101.047 5.18515 101.047 4.90324C101.047 4.61372 101.101 4.34324 101.206 4.09181C101.319 3.84038 101.47 3.61943 101.659 3.42896C101.855 3.23848 102.078 3.08991 102.327 2.98324C102.576 2.87657 102.844 2.82324 103.13 2.82324C103.425 2.82324 103.7 2.87657 103.957 2.98324C104.221 3.08991 104.452 3.23848 104.647 3.42896C104.844 3.61943 104.998 3.84038 105.112 4.09181C105.225 4.34324 105.281 4.61372 105.281 4.90324ZM107.708 23.7604V8.14896H109.882C110.1 8.14896 110.281 8.1985 110.425 8.29753C110.575 8.39656 110.681 8.54513 110.742 8.74324L111.002 9.61181C111.229 9.36038 111.47 9.13181 111.727 8.9261C111.991 8.72039 112.27 8.54513 112.565 8.40039C112.866 8.24799 113.187 8.12993 113.527 8.0461C113.874 7.96227 114.251 7.92039 114.659 7.92039C115.27 7.92039 115.836 8.05753 116.357 8.33181C116.878 8.6061 117.327 9.00227 117.704 9.52038C118.081 10.0385 118.375 10.6747 118.587 11.429C118.806 12.1756 118.915 13.0251 118.915 13.9775C118.915 14.869 118.791 15.6918 118.542 16.4461C118.3 17.2004 117.957 17.8556 117.512 18.4118C117.074 18.968 116.545 19.4023 115.927 19.7147C115.315 20.0271 114.636 20.1832 113.889 20.1832C113.278 20.1832 112.764 20.0956 112.349 19.9204C111.934 19.7451 111.557 19.509 111.217 19.2118V23.7604H107.708ZM113.436 10.629C113.179 10.629 112.945 10.6556 112.734 10.709C112.531 10.7547 112.338 10.8232 112.157 10.9147C111.983 11.0061 111.821 11.1242 111.67 11.269C111.519 11.4061 111.368 11.5661 111.217 11.749V16.7775C111.481 17.0747 111.768 17.2842 112.078 17.4061C112.387 17.5204 112.712 17.5775 113.051 17.5775C113.376 17.5775 113.674 17.5128 113.946 17.3832C114.217 17.2537 114.451 17.048 114.648 16.7661C114.851 16.4766 115.01 16.1032 115.123 15.6461C115.236 15.189 115.293 14.6328 115.293 13.9775C115.293 13.3528 115.248 12.8271 115.157 12.4004C115.066 11.9737 114.938 11.6308 114.772 11.3718C114.614 11.1051 114.421 10.9147 114.195 10.8004C113.968 10.6861 113.715 10.629 113.436 10.629Z" fill="url(#paint3_linear_286_6425)"/>
<defs>
<linearGradient id="paint0_linear_286_6425" x1="15.9458" y1="1.26672e-05" x2="24.7379" y2="0.200228" gradientUnits="userSpaceOnUse">
<stop stop-color="#5190FE"/>
<stop offset="1" stop-color="#C4ADFF"/>
</linearGradient>
<linearGradient id="paint1_linear_286_6425" x1="2.55759" y1="1.26672e-05" x2="11.3265" y2="0.199171" gradientUnits="userSpaceOnUse">
<stop stop-color="#5190FE"/>
<stop offset="1" stop-color="#C4ADFF"/>
</linearGradient>
<linearGradient id="paint2_linear_286_6425" x1="3.11839" y1="4.8545" x2="24.829" y2="6.94357" gradientUnits="userSpaceOnUse">
<stop stop-color="#5190FE"/>
<stop offset="1" stop-color="#C4ADFF"/>
</linearGradient>
<linearGradient id="paint3_linear_286_6425" x1="29.9735" y1="2.82325" x2="118.252" y2="26.4213" gradientUnits="userSpaceOnUse">
<stop stop-color="#5190FE"/>
<stop offset="1" stop-color="#C4ADFF"/>
</linearGradient>
</defs>
</svg>
